<svg version="1" xmlns="http://www.w3.org/2000/svg" width="1422.667" height="1422.667" viewBox="0 0 1067.000000 1067.000000"><path d="M279.5 8.3c-2.2 4.5-4.7 9.3-5.6 10.7-.9 1.4-1.7 2.8-1.8 3.3 0 .4-57.5 115.6-127.6 255.9L17 533.5l133 266.2C223.1 946.2 283.2 1066 283.5 1066c.3 0 52.9-104.8 117-232.9l116.4-232.9H733c129.5 0 216 .4 216 .9s-52.2 105.4-116 233.2l-116 232.2 33.2.3c18.2.1 33.2.1 33.3 0 .2-.2 60.2-120.2 133.4-266.8L1050 533.5 916.8 266.8 783.5 0h-33.3c-18.3 0-33.1.3-32.9.7.2.5 50.9 102 112.7 225.8C891.7 350.2 944 455 946.2 459.3l3.8 7.8-50-.1-50-.1-99.7-199.7C695.5 157.4 650.3 67.3 649.9 67c-1-.7-64.7-.5-65.4.2-.3.3 36.7 75.2 82.3 166.4l83 165.9-26.7.5c-14.6.3-37.1.4-49.9.2l-23.2-.3-83.1-166.2C521.3 142.3 483.5 67.3 483 67c-.9-.6-64.8-.5-65.4.1-.2.2 44.6 90.3 99.5 200.1L616.9 467l-50.1-.3-50-.2-23.5-47c-12.9-25.9-26.6-53.1-30.3-60.5l-93.1-186.2L283.5.1l-4 8.2zm88.7 294.3c45 89.9 81.8 163.6 81.8 163.8 0 .3-22.4.5-49.8.5h-49.7l-31.4-62.3c-17.2-34.3-32.3-64-33.5-66.1l-2.2-3.6-2.8 5.3c-1.5 2.9-3.1 6-3.6 6.8-.5.8-3.9 7.6-7.6 15-3.7 7.4-24.5 48.8-46.1 92S184 532.9 184 533.4c0 1 93.4 187.7 97.2 194.4l2.5 4.3 5.5-10.6c3.1-5.8 18.1-35.5 33.3-65.9l27.8-55.4h49.8c45.7 0 49.7.2 49.1 1.7-1.1 2.9-163.1 326.1-164.5 328-1.2 1.8-2 .7-9.1-13.2C262.3 890.9 84 534.2 84 533.4c0-.7 177.3-355.4 192.5-385.1 6.5-12.7 6.9-13.2 8.3-11.1.9 1.1 38.4 75.6 83.4 165.4z"/><path d="M483.7 866.5c-54.8 109.7-99.7 199.7-99.7 200 0 .3 52.4.5 116.4.5h116.4l99.6-199.4C771.2 758 816 668 816 667.6c0-.3-14.9-.6-33-.6h-33l-21.4 42.9c-11.8 23.6-21.9 43.7-22.5 44.7-.6 1.1-22.5 44.9-48.7 97.4-26.2 52.5-48 96.1-48.6 96.7-.6.7-.8 1.3-.6 1.3.2 0-5.3 11.3-12.2 25.2l-12.6 25.1-48.8.1c-26.8.1-49.2-.2-49.7-.5s16.2-34.9 37.3-77c21-42 38.3-76.6 38.3-76.9 0-.3.7-1.6 1.5-3 1.9-3.5 70.4-140.4 70.5-141 0-.3.7-1.6 1.5-3 1.6-2.9 11.6-22.8 14.1-28.3l1.8-3.7h-66.4l-99.8 199.5z"/></svg>