<?xml version="1.0" standalone="no"?>
<!DOCTYPE svg PUBLIC "-//W3C//DTD SVG 20010904//EN"
 "http://www.w3.org/TR/2001/REC-SVG-20010904/DTD/svg10.dtd">
<svg version="1.0" xmlns="http://www.w3.org/2000/svg"
 width="775.000000pt" height="800.000000pt" viewBox="0 0 775.000000 800.000000"
 preserveAspectRatio="xMidYMid meet">

<g transform="translate(0.000000,800.000000) scale(0.100000,-0.100000)"
fill="#000000" stroke="none">
<path d="M1000 6000 l-1000 -2000 1000 -2000 1000 -2000 875 1750 875 1750
1625 0 1625 0 -875 -1750 -875 -1750 250 0 250 0 1000 2000 1000 2000 -1000
2000 -1000 2000 -250 0 -250 0 875 -1750 875 -1750 -375 0 -375 0 -750 1500
-750 1500 -250 0 -250 0 625 -1250 625 -1250 -375 0 -375 0 -625 1250 -625
1250 -250 0 -250 0 750 -1500 750 -1500 -375 0 -375 0 -875 1750 -875 1750
-1000 -2000z m1628 -255 l622 -1245 -375 0 -375 0 -247 495 c-137 272 -250
495 -253 495 -3 0 -173 -335 -378 -745 l-372 -745 372 -745 c205 -410 375
-745 378 -745 3 0 116 223 253 495 l247 495 375 0 375 0 -622 -1245 c-343
-685 -625 -1245 -628 -1245 -3 0 -341 673 -753 1495 l-747 1495 747 1495 c412
822 750 1495 753 1495 3 0 285 -560 628 -1245z"/>
<path d="M3500 1500 l-750 -1500 875 0 875 0 750 1500 750 1500 -250 0 -250 0
-625 -1250 -625 -1250 -375 0 -375 0 625 1250 625 1250 -250 0 -250 0 -750
-1500z"/>
</g>
</svg>
