<?xml version="1.0" encoding="UTF-8" standalone="no"?>
<svg
   xmlns:dc="http://purl.org/dc/elements/1.1/"
   xmlns:cc="http://creativecommons.org/ns#"
   xmlns:rdf="http://www.w3.org/1999/02/22-rdf-syntax-ns#"
   xmlns:svg="http://www.w3.org/2000/svg"
   xmlns="http://www.w3.org/2000/svg"
   xmlns:sodipodi="http://sodipodi.sourceforge.net/DTD/sodipodi-0.dtd"
   xmlns:inkscape="http://www.inkscape.org/namespaces/inkscape"
   version="1.0"
   width="775"
   height="800"
   viewBox="0 0 775.00002 799.99998"
   preserveAspectRatio="xMidYMid meet"
   id="svg30"
   sodipodi:docname="logo_master.svg"
   inkscape:version="0.92.5 (2060ec1f9f, 2020-04-08)">
  <metadata
     id="metadata36">
    <rdf:RDF>
      <cc:Work
         rdf:about="">
        <dc:format>image/svg+xml</dc:format>
        <dc:type
           rdf:resource="http://purl.org/dc/dcmitype/StillImage" />
        <dc:title></dc:title>
      </cc:Work>
    </rdf:RDF>
  </metadata>
  <defs
     id="defs34" />
  <sodipodi:namedview
     pagecolor="#ffffff"
     bordercolor="#666666"
     borderopacity="1"
     objecttolerance="10"
     gridtolerance="10"
     guidetolerance="10"
     inkscape:pageopacity="0"
     inkscape:pageshadow="2"
     inkscape:window-width="839"
     inkscape:window-height="644"
     id="namedview32"
     showgrid="false"
     inkscape:zoom="0.31289063"
     inkscape:cx="281.01428"
     inkscape:cy="300.99505"
     inkscape:window-x="308"
     inkscape:window-y="474"
     inkscape:window-maximized="0"
     inkscape:current-layer="svg30"
     units="px"
     fit-margin-top="0"
     fit-margin-left="0"
     fit-margin-right="0"
     fit-margin-bottom="0"
     scale-x="1" />
  <g
     transform="matrix(0.1,0,0,-0.1,0,800)"
     id="g28"
     style="fill:#000000;stroke:none">
    <path
       d="M 1000,6000 0,4000 1000,2000 2000,0 2875,1750 3750,3500 H 5375 7000 L 6125,1750 5250,0 h 250 250 L 6750,2000 7750,4000 6750,6000 5750,8000 h -250 -250 l 875,-1750 875,-1750 h -375 -375 l -750,1500 -750,1500 h -250 -250 l 625,-1250 625,-1250 h -375 -375 l -625,1250 -625,1250 h -250 -250 l 750,-1500 750,-1500 h -375 -375 l -875,1750 -875,1750 z m 1628,-255 622,-1245 h -375 -375 l -247,495 c -137,272 -250,495 -253,495 -3,0 -173,-335 -378,-745 l -372,-745 372,-745 c 205,-410 375,-745 378,-745 3,0 116,223 253,495 l 247,495 h 375 375 L 2628,2255 c -343,-685 -625,-1245 -628,-1245 -3,0 -341,673 -753,1495 l -747,1495 747,1495 c 412,822 750,1495 753,1495 3,0 285,-560 628,-1245 z"
       id="path24"
       inkscape:connector-curvature="0" />
    <path
       d="M 3500,1500 2750,0 h 875 875 l 750,1500 750,1500 H 5750 5500 L 4875,1750 4250,500 h -375 -375 l 625,1250 625,1250 h -250 -250 z"
       id="path26"
       inkscape:connector-curvature="0" />
  </g>
</svg>
